<svg width="279" height="258" fill="none" xmlns="http://www.w3.org/2000/svg"><path opacity=".1" d="M414.256 197.482c0-114.367-92.713-207.08-207.081-207.08S.094 83.114.094 197.481c0 114.368 92.713 207.082 207.081 207.082s207.081-92.714 207.081-207.082Z" fill="#fff"/><path d="M294.709 197.482c0-48.344-39.191-87.535-87.535-87.535-48.345 0-87.535 39.191-87.535 87.535 0 48.345 39.19 87.535 87.535 87.535 48.344 0 87.535-39.19 87.535-87.535Z" fill="#fff"/><path opacity=".3" d="M377.525 197.483c0-94.082-76.268-170.35-170.349-170.35-94.082 0-170.35 76.268-170.35 170.35 0 94.081 76.268 170.349 170.35 170.349 94.081 0 170.349-76.268 170.349-170.349Z" fill="#fff"/><path opacity=".3" d="M337.874 197.483c0-72.182-58.515-130.698-130.698-130.698-72.182 0-130.697 58.516-130.697 130.698 0 72.182 58.515 130.698 130.697 130.698 72.183 0 130.698-58.516 130.698-130.698Z" fill="#fff"/><path d="M163.975 195.755c0-19.556 0-29.32 6.048-35.426 6.135-6.048 15.898-6.048 35.426-6.048h3.456c19.557 0 29.32 0 35.426 6.048 6.049 6.135 6.049 15.899 6.049 35.426v3.456c0 19.557 0 29.321-6.049 35.426-6.135 6.049-15.898 6.049-35.426 6.049h-3.456c-19.556 0-29.32 0-35.426-6.049-6.048-6.134-6.048-15.898-6.048-35.426v-3.456Z" fill="#fff"/><path d="M219.623 218.373c-23.17 10.116-43.303.031-55.382-26.154l11.653-5.088c8.833 19.213 20.949 23.684 28.463 22.419l-12.779-29.267 10.942-4.778 7.291 16.701c6.363-3.625 10.081-14.324 8.784-23.76l10.908-4.762a35.221 35.221 0 0 1-5.623 27.582 36.477 36.477 0 0 1 26.637 13.618l-12.026 5.25c-6.08-6.904-15.237-10.327-24.11-7.461l6.597 15.108-1.321.577-.034.015Z" fill="#07F"/></svg>