<svg width="127" height="41" fill="none" xmlns="http://www.w3.org/2000/svg"><g clip-path="url(#a)"><mask id="b" style="mask-type:luminance" maskUnits="userSpaceOnUse" x="0" y="0" width="127" height="41"><path d="M126.858 0H0v41h126.858V0Z" fill="#fff"/></mask><g mask="url(#b)"><g opacity=".9"><path d="M33.88 18.085a.88.88 0 1 1 1.669-.56.88.88 0 1 1-1.67.56Zm-17.616 14.48c1.186.281 2.237.594 3.483.552 1.28-.048 2.54-.267 3.77-.621 2.423-.702 4.921-1.548 7.122-2.8 1.802-1.03 3.66-2.401 4.503-4.37.385-.897.602-1.83.701-2.801.054-.518.132-.97.25-1.405a.887.887 0 0 1 .055-.081c.253-.328.524-.64.833-.916.37-.332.797-.692 1.242-.917.181-.093.339-.163.481-.276.13-.02.254-.055.363-.117.03-.016.026-.056.005-.077-.303-.31-.86-.388-1.25-.539a6.962 6.962 0 0 1-.544-.239.303.303 0 0 0 .007-.081c.002-.29-.012-.357-.134-.639-.183-.426-.367-.874-.68-1.226-.708-.791-1.803-1.228-2.865-1.202-2.464.066-4.733 1.594-6.4 3.306-2.117 2.173-3.487 4.753-4.892 7.406-.713 1.346-1.477 2.74-2.55 3.84-1.058 1.08-2.355 1.769-3.531 2.7a.188.188 0 0 0-.063.097c-.134.117-.121.356.094.407Z" fill="#FF2D16"/><path d="M29.512 15.557s-3.184.384-6.779-3.455C19.99 9.175 20.093 7.5 21.06 7.133c.773-.29 1.55.788 2.503 2.753 1.06 2.188 3.005 4.724 5.95 5.671Z" fill="#00B8F1"/><path d="M24.48 8.89c-2.413-5.003-1.29-5.744-.526-5.88.762-.135 1.238 1.159 1.584 3.505.346 2.347 1.836 6.771 5.462 8.177 0 0-4.108-.797-6.52-5.801Z" fill="#FFA22B"/><path d="M27.735 16.52s-3.014.528-6.242-1.737c-3.229-2.266-2.433-3.504-1.706-3.506.727-.002.982.518 2.61 2.111 1.628 1.592 2.769 2.582 5.338 3.132Z" fill="#84C746"/><path d="M21.473 16.04c1.1.954 2.851 1.868 4.56 1.9 0 0-2.373.636-5.198-.555-2.824-1.189-2.356-2.195-1.836-2.452.519-.254 1.332.117 2.474 1.107Z" fill="#862996"/><path d="M9.437 16.596c-3.26-3.023-2.813-5.293-2.25-5.604.562-.31 1.532.051 2.13 1.827.533 1.588 1.66 2.774 1.66 2.774 5.449 6.1 12.883 5.135 12.883 5.135-7.201 1.293-11.163-1.11-14.423-4.133Z" fill="#FF2D16"/><path d="M22.912 21.875c-6.416 2.18-10.211.872-14.833-1.692C3.457 17.618.22 11.84 2.046 11.39c1.854-.462 1.547 1.904 7.633 7.366 5.762 5.17 13.233 3.119 13.233 3.119Z" fill="#D62313"/><path d="M22.11 22.973c-3.904 2.323-7.707 2.43-13.67.439-5.964-1.993-9.735-7.185-8.028-7.638 1.707-.453 1.826 2.779 8.824 6.4 6.997 3.624 12.874.799 12.874.799Z" fill="#91120A"/><path d="M4.47 24.224c.787-.337 2.144.249 4.956 1.28 5.763 2.117 12.301-1.029 12.301-1.029-10.481 6.314-16.662 1.71-17.228 1.274-.438-.338-.913-1.148-.03-1.525Z" fill="#1D1C1B"/><path d="M13.75 31.743c-2.224.777-2.899-.496-2.69-.841.207-.344.8-.232 1.199.282.397.514 1.491.559 1.491.559Zm3.163-.924s-2.782.978-3.971-.036c-1.19-1.014-2.28-1.131-2.75-.246-.47.884 1.161 3.93 6.721.282ZM9.072 34.86c-.11-.508.407-.774 1.144-.656.735.115 1.662-.105 1.662-.105-1.424 1.083-2.695 1.269-2.806.761Zm-.708.33c.415 1.111 3.236.728 7.138-2.684 0 0-2.479 1.035-4.539.92-2.059-.114-3.014.65-2.6 1.763Zm4.881 1.082c-.09-.27.09-.544.797-.69a5.394 5.394 0 0 0 1.298-.468c-1.022 1.283-2.003 1.431-2.095 1.158Zm-1.025.287c.257 1.123 4.286.13 4.992-3.296 0 0-.7.923-2.407 1.495-1.704.574-2.843.674-2.585 1.8Z" fill="#D4233E"/></g><path d="M53.238 20.032a.49.49 0 0 0 .493.482h.975a.501.501 0 0 0 .504-.493v-6.522a.496.496 0 0 0-.504-.494h-.975a.493.493 0 0 0-.493.494v2.366h-3.6v-2.366a.493.493 0 0 0-.493-.494h-.975a.495.495 0 0 0-.503.494v6.522a.5.5 0 0 0 .503.493h.975a.49.49 0 0 0 .493-.482v-2.689h3.6v2.689Zm7.254-5.763c1.607 0 2.24.889 2.24 2.496 0 1.606-.633 2.495-2.24 2.495-1.607 0-2.24-.889-2.24-2.495 0-1.607.633-2.496 2.24-2.496Zm-4.21 2.496c0 2.785 1.531 3.91 4.21 3.91 2.678 0 4.21-1.125 4.21-3.91s-1.532-3.91-4.21-3.91c-2.679 0-4.21 1.125-4.21 3.91Zm9.492 3.256c0 .268.215.493.493.493h4.5c1.468 0 2.775-.76 2.775-2.25 0-.707-.3-1.36-1.007-1.735.525-.428.707-.848.707-1.387 0-1.559-1.382-2.137-2.721-2.137h-4.254a.492.492 0 0 0-.493.493v6.523Zm4.768-5.602c.439 0 .729.27.729.755 0 .486-.29.755-.73.755h-2.795v-1.51h2.796Zm.193 2.881c.557 0 .836.364.836.9s-.279.9-.836.9h-2.99v-1.8h2.99Zm8.004-.257c.61 0 .878.375.878.996 0 .622-.268.996-.878.996h-2.154v-1.992h2.154Zm-2.154-1.478V13.5a.493.493 0 0 0-.493-.496h-.986a.487.487 0 0 0-.492.496v6.51c0 .267.203.503.47.503h3.655c1.564 0 2.85-.857 2.85-2.475 0-1.617-1.286-2.474-2.85-2.474h-2.154Zm6.054 4.467a.49.49 0 0 0 .493.482h.996a.5.5 0 0 0 .503-.493V13.5a.496.496 0 0 0-.503-.496h-.996a.493.493 0 0 0-.493.496v6.53Zm7.307-8.784c-.364 0-.578-.139-.675-.375-.064-.16-.193-.268-.364-.268h-.429c-.182 0-.289.076-.289.268 0 .965.707 1.554 1.757 1.554 1.05 0 1.757-.59 1.757-1.554 0-.192-.107-.268-.289-.268h-.428c-.172 0-.3.108-.365.268-.096.236-.31.375-.675.375Zm3.322 9.266a.498.498 0 0 0 .492-.493v-6.513a.49.49 0 0 0-.482-.492h-1.543c-.257 0-.568.235-.718.492l-2.978 5.228v-5.238a.49.49 0 0 0-.493-.482h-.922a.485.485 0 0 0-.493.492v6.513c0 .268.215.493.493.493h1.736c.279 0 .611-.225.761-.493l2.732-4.852v4.852c0 .268.225.493.493.493h.921Zm10.907 0c.268 0 .546-.216.642-.473l1.844-5.147v5.115c0 .278.214.505.493.505h.942a.495.495 0 0 0 .493-.505V13.51a.493.493 0 0 0-.482-.505h-2.132c-.279 0-.547.227-.632.494l-1.543 4.472-1.543-4.472c-.086-.267-.353-.494-.632-.494h-2.132a.493.493 0 0 0-.483.505v6.499c0 .278.215.505.493.505h.943a.495.495 0 0 0 .493-.505v-5.115l1.843 5.147c.096.257.375.473.643.473h.75Zm13.05 0a.5.5 0 0 0 .493-.495V13.5a.49.49 0 0 0-.482-.494h-1.543c-.257 0-.568.237-.718.494l-2.978 5.233V13.49a.492.492 0 0 0-.493-.484h-.922a.486.486 0 0 0-.493.494v6.52c0 .268.214.495.493.495h1.736c.279 0 .611-.227.761-.495l2.732-4.857v4.857a.5.5 0 0 0 .493.495h.921Zm5.872-6.03c1.028 0 1.789.213 1.789 1.44 0 1.226-.761 1.44-1.789 1.44h-1.908v-2.88h1.908Zm-3.397-1.48a.482.482 0 0 0-.482.494v6.523c0 .268.225.493.493.493h.986a.491.491 0 0 0 .492-.493v-1.178h2.508c1.993 0 3.161-.9 3.161-2.92 0-2.018-1.168-2.918-3.161-2.918H119.7Z" fill="#404040"/><path opacity=".9" d="M47 26.707c0 1.207.615 1.759 1.81 1.759h.596c.68 0 1.405-.363 1.405-1.069a.252.252 0 0 0-.25-.268h-.29c-.14 0-.255.065-.35.268a.62.62 0 0 1-.6.383h-.486c-.72 0-.915-.263-.915-1.073 0-.81.195-1.074.915-1.074h.435c.3 0 .49.15.6.383.096.204.21.268.35.268h.29c.066 0 .25-.044.25-.268 0-.706-.724-1.068-1.405-1.068h-.545c-1.195 0-1.81.551-1.81 1.759Zm4.286 1.51c0 .125.1.229.23.229h2.1c.685 0 1.296-.353 1.296-1.043 0-.328-.14-.632-.47-.806.244-.198.33-.393.33-.643 0-.723-.646-.992-1.27-.992h-1.986a.23.23 0 0 0-.23.23v3.025Zm2.225-2.598c.205 0 .34.125.34.35 0 .225-.135.35-.34.35h-1.305v-.7h1.305Zm.09 1.336c.26 0 .39.17.39.418 0 .248-.13.417-.39.417h-1.395v-.835h1.395Zm4.856-1.992h-2.815a.227.227 0 0 0-.23.223v3.027c0 .129.1.233.23.233h2.805c.13 0 .23-.104.23-.229v-.233c0-.124-.1-.224-.225-.224h-2.12v-.715h1.83c.125 0 .23-.105.23-.23v-.228a.232.232 0 0 0-.23-.228h-1.83v-.71h2.125c.125 0 .23-.1.23-.23v-.228a.229.229 0 0 0-.23-.229Zm.61 0c-.13 0-.23.099-.23.228v.229c0 .129.1.228.23.228h1.09v2.573c0 .125.105.225.23.225h.46c.126 0 .23-.1.23-.225v-2.573h1.09c.13 0 .231-.1.231-.228v-.229c0-.13-.1-.229-.23-.229h-3.1Zm7.697 3.23c.15.139.274.253.5.253h.555c.125 0 .19-.14.085-.229l-.625-.556.294-.418c.05-.07.036-.154-.04-.208l-.264-.18a.147.147 0 0 0-.2.04l-.24.343-.846-.73c-.24-.204-.42-.398-.42-.646 0-.224.17-.358.455-.358.295 0 .48.095.565.229.07.11.155.179.28.179h.326c.085 0 .15-.065.15-.15 0-.566-.525-.844-1.33-.844-.856 0-1.296.457-1.296.989 0 .228.07.402.22.566-.38.174-.585.507-.585.944 0 .661.475 1.079 1.36 1.079.47 0 .775-.125 1.056-.303Zm-.995-.284c-.461 0-.6-.218-.6-.492 0-.189.074-.348.245-.432l.87.78a.88.88 0 0 1-.515.144Zm4.41-.149h-.19c-.125 0-.23.1-.23.224v.233c0 .125.105.229.23.229h3.55c.125 0 .23-.1.23-.224v-3.036a.228.228 0 0 0-.23-.224h-1.32c-.71 0-1.395.18-1.585.955l-.455 1.843Zm1.35-1.634c.07-.294.28-.478.59-.478h.73v2.112h-1.73l.41-1.634Zm5.986-1.164h-2.816c-.124 0-.23.1-.23.224v3.027c0 .129.1.233.23.233h2.806c.13 0 .23-.104.23-.229v-.233c0-.124-.1-.224-.225-.224h-2.12v-.715h1.83c.125 0 .23-.105.23-.23v-.228a.232.232 0 0 0-.23-.228h-1.83v-.71h2.125c.125 0 .23-.1.23-.23v-.228a.229.229 0 0 0-.23-.229Zm1.37 3.484c.125 0 .23-.1.23-.224v-1.177h.526c.315 0 .5.203.685.497l.43.675c.08.13.25.229.375.229h.56c.13 0 .165-.1.085-.229l-.61-.964c-.14-.213-.39-.517-.63-.566.34-.08.505-.313.63-.537l.53-.954c.075-.134.05-.234-.075-.234h-.565c-.125 0-.26.075-.35.234l-.38.67c-.195.349-.4.493-.685.493h-.525v-1.163a.233.233 0 0 0-.23-.234h-.46a.233.233 0 0 0-.23.234v3.017c0 .129.105.233.23.233h.46Zm4.902-2.897c.75 0 1.045.412 1.045 1.158 0 .745-.295 1.158-1.045 1.158s-1.045-.413-1.045-1.158c0-.746.295-1.158 1.045-1.158Zm-1.966 1.158c0 1.292.716 1.814 1.966 1.814s1.965-.522 1.965-1.814-.715-1.814-1.965-1.814-1.966.522-1.966 1.814Zm6.242-1.059c.48 0 .835.1.835.669 0 .569-.355.668-.835.668h-.89v-1.337h.89Zm-1.586-.686c-.124 0-.224.1-.224.23v3.025c0 .125.105.229.23.229h.46c.13 0 .23-.104.23-.229v-.546h1.17c.93 0 1.475-.418 1.475-1.354 0-.937-.545-1.355-1.475-1.355h-1.866Z" fill="#FF2D16"/></g></g><defs><clipPath id="a"><path fill="#fff" d="M0 0h127v41H0z"/></clipPath></defs></svg>