<svg width="40" height="40" fill="none" xmlns="http://www.w3.org/2000/svg"><path d="M0 20C0 8.954 8.954 0 20 0s20 8.954 20 20-8.954 20-20 20S0 31.046 0 20Z" fill="#F80"/><path fill-rule="evenodd" clip-rule="evenodd" d="M25.419 14.967a5.393 5.393 0 0 1-5.384 5.383c-2.997 0-5.415-2.417-5.415-5.383 0-2.965 2.418-5.383 5.415-5.383a5.393 5.393 0 0 1 5.384 5.383Zm-3.16 0a2.228 2.228 0 0 0-2.224-2.224c-1.257 0-2.256 1-2.224 2.224 0 1.225 1 2.224 2.224 2.224a2.228 2.228 0 0 0 2.225-2.224Z" fill="#fff"/><path d="M25.322 23.477a10.19 10.19 0 0 1-3.127 1.29l3.063 2.965a1.576 1.576 0 0 1 0 2.225 1.576 1.576 0 0 1-2.224 0l-2.966-2.966-2.966 2.966c-.322.29-.709.45-1.128.45-.42 0-.806-.128-1.128-.45a1.576 1.576 0 0 1 0-2.225l2.998-2.997a10.183 10.183 0 0 1-3.127-1.29c-.742-.451-.967-1.418-.548-2.16a1.605 1.605 0 0 1 2.192-.483 6.845 6.845 0 0 0 7.253 0 1.57 1.57 0 0 1 2.192.483 1.57 1.57 0 0 1-.484 2.192Z" fill="#fff"/></svg>