<svg width="24" height="24" fill="none" xmlns="http://www.w3.org/2000/svg"><path d="M21 14.25a.75.75 0 0 1-.75.75H18v1.5h1.5a.75.75 0 1 1 0 1.5H18v1.5a.75.75 0 1 1-1.5 0v-5.25a.75.75 0 0 1 .75-.75h3a.75.75 0 0 1 .75.75ZM8.625 16.125A2.625 2.625 0 0 1 6 18.75h-.75v.75a.75.75 0 1 1-1.5 0v-5.25a.75.75 0 0 1 .75-.75H6a2.625 2.625 0 0 1 2.625 2.625Zm-1.5 0A1.125 1.125 0 0 0 6 15h-.75v2.25H6a1.125 1.125 0 0 0 1.125-1.125Zm8.25.75A3.375 3.375 0 0 1 12 20.25h-1.5a.75.75 0 0 1-.75-.75v-5.25a.75.75 0 0 1 .75-.75H12a3.375 3.375 0 0 1 3.375 3.375Zm-1.5 0A1.875 1.875 0 0 0 12 15h-.75v3.75H12a1.875 1.875 0 0 0 1.875-1.875ZM3.75 10.5V3.75a1.5 1.5 0 0 1 1.5-1.5h9a.75.75 0 0 1 .53.22l5.25 5.25a.748.748 0 0 1 .22.53v2.25a.75.75 0 1 1-1.5 0V9h-4.5a.75.75 0 0 1-.75-.75v-4.5H5.25v6.75a.75.75 0 1 1-1.5 0ZM15 7.5h2.69L15 4.81V7.5Z" fill="#FE412D"/></svg>