<svg width="23" height="23" fill="none" xmlns="http://www.w3.org/2000/svg"><path d="m21.236 15.533-5.166-2.316a1.531 1.531 0 0 0-1.514.18l-2.7 2.297a.206.206 0 0 1-.184.006c-1.736-.838-3.534-2.625-4.375-4.337a.209.209 0 0 1 0-.183L9.6 8.445a1.531 1.531 0 0 0 .17-1.515l-2.3-5.158A1.531 1.531 0 0 0 5.878.856 5.933 5.933 0 0 0 .718 6.75c0 8.564 6.968 15.531 15.532 15.531a5.934 5.934 0 0 0 5.894-5.159 1.53 1.53 0 0 0-.908-1.59Zm-4.986 5.436c-7.84 0-14.219-6.379-14.219-14.219a4.619 4.619 0 0 1 4.011-4.594h.025a.219.219 0 0 1 .201.144l2.308 5.152a.219.219 0 0 1 0 .183l-2.309 2.74a.522.522 0 0 0-.047.063 1.531 1.531 0 0 0-.1 1.502c.971 1.986 2.973 3.972 4.98 4.943a1.532 1.532 0 0 0 1.568-.156l2.7-2.297a.21.21 0 0 1 .174-.01l5.168 2.315a.22.22 0 0 1 .133.219 4.62 4.62 0 0 1-4.593 4.015Z" fill="#1C1F33"/></svg>