<svg width="40" height="40" fill="none" xmlns="http://www.w3.org/2000/svg"><path d="M40 20C40 8.954 31.046 0 20 0S0 8.954 0 20s8.954 20 20 20 20-8.954 20-20Z" fill="#07F"/><path d="M9.24 19.57c0-4.871 0-7.303 1.506-8.824 1.528-1.506 3.96-1.506 8.824-1.506h.86c4.871 0 7.303 0 8.824 1.506 1.506 1.528 1.506 3.96 1.506 8.824v.86c0 4.871 0 7.303-1.506 8.824-1.528 1.506-3.96 1.506-8.824 1.506h-.86c-4.871 0-7.303 0-8.824-1.506-1.506-1.528-1.506-3.96-1.506-8.824v-.86Z" fill="#07F"/><path d="M20.87 26.011c-6.298 0-9.888-4.308-10.035-11.49h3.167c.1 5.267 2.42 7.495 4.262 7.955v-7.954h2.974v4.539c1.813-.194 3.728-2.265 4.373-4.548h2.964a8.776 8.776 0 0 1-4.032 5.735 9.086 9.086 0 0 1 4.722 5.763h-3.268c-.7-2.182-2.449-3.876-4.76-4.106v4.106h-.368Z" fill="#fff"/></svg>