<svg width="1203" height="200" fill="none" xmlns="http://www.w3.org/2000/svg"><path d="M80 0C35.816 0 0 35.816 0 80c0 22.084 8.948 42.08 23.42 56.556C37.896 151.04 72 172 74 194c.3 3.298 2.688 6 6 6s5.7-2.702 6-6c2-22 36.104-42.96 50.58-57.444C151.052 122.08 160 102.084 160 80c0-44.184-35.816-80-80-80Z" fill="url(#a)"/><path d="M80 108.004c15.464 0 28-12.536 28-28s-12.536-28-28-28-28 12.536-28 28 12.536 28 28 28Z" fill="#fff"/><path d="M299.54 148.016h21.127V26.666h-30.73c-30.905 0-47.143 15.89-47.143 39.287 0 18.682 8.904 29.682 24.793 41.031L240 148.016h22.873l30.73-45.921-10.651-7.158c-12.92-8.73-19.206-15.54-19.206-30.207 0-12.92 9.079-21.65 26.365-21.65h9.429v104.936Zm277.444-5.937v-16.936c-6.46 4.365-17.286 8.206-27.413 8.206-15.19 0-20.952-7.158-21.825-21.825h50.111v-11c0-30.556-13.444-42.08-34.222-42.08-25.318 0-37.365 19.382-37.365 45.921 0 30.556 15.016 45.397 41.555 45.397 13.27 0 23.048-3.492 29.159-7.683Zm129.905 7.683c9.603 0 16.413-1.746 21.476-5.413v-16.936c-5.238 3.666-11.524 5.936-20.254 5.936-14.841 0-20.952-11.524-20.952-29.682 0-19.032 7.508-28.81 21.127-28.81 8.031 0 15.889 2.794 20.079 5.413V62.635c-4.365-2.444-12.048-4.19-22.349-4.19-26.54 0-40.334 19.031-40.334 45.746 0 29.333 13.445 45.571 41.207 45.571ZM386.667 60.191v34.746h-27.762V60.19h-20.778v87.825h20.778v-36.667h27.762v36.667h20.777V60.191h-20.777Zm114.539 71.412h-9.254V60.191h-60.587v7.507c0 21.477-1.397 49.239-8.73 63.905h-6.46v36.492h19.206v-20.079H482v20.079h19.206v-36.492Zm142.127 16.413h23.572l-33.35-47.318 29.334-40.507h-20.953l-29.333 40.507V60.191h-20.778v87.825h20.778v-43.127l30.73 43.127ZM543.286 74.857c10.301 0 13.444 8.556 13.444 19.556v1.746h-28.984c.524-13.968 5.587-21.302 15.54-21.302Zm-72.111 56.746h-29.334c5.762-13.27 7.334-37.19 7.334-52.38v-2.62h22v55Zm364.41 16.413h24.619l-43.301-63.905 40.508-57.444h-20.953L797.173 82.54V26.667h-21.127v121.349h21.127v-56.92l38.412 56.92Zm94.676-59.889c0-21.301-10.826-29.333-32.826-29.333-13.793 0-24.619 4.365-30.904 8.032V84.11c5.587-4.19 17.809-8.73 28.46-8.73 9.952 0 14.492 3.492 14.492 12.92v4.89h-3.318c-31.777 0-45.92 10.476-45.92 28.285 0 17.81 10.825 27.762 26.889 27.762 12.222 0 17.46-4.016 21.476-8.206h.873c.174 2.27.873 5.238 1.571 6.984h20.254a221.189 221.189 0 0 1-1.047-21.476V88.127Zm-20.778 38.937c-2.619 3.841-7.508 6.984-14.841 6.984-8.731 0-13.096-5.238-13.096-13.096 0-10.301 7.159-13.968 24.969-13.968h2.968v20.08ZM965.56 60.19h-19.206v113.143h20.777v-35.619c5.238 7.858 12.921 12.048 21.826 12.048 20.253 0 34.223-16.238 34.223-45.746 0-29.333-13.62-45.572-33.176-45.572-9.777 0-17.809 4.54-23.396 13.096l-1.048-11.35Zm18.159 73.159c-11 0-16.588-8.904-16.588-29.158 0-20.429 5.937-29.334 17.635-29.334 11.35 0 16.934 8.905 16.934 29.159 0 20.429-5.934 29.333-17.981 29.333ZM1095.6 76.603V60.191h-69.67v16.412h24.44v71.413h20.78V76.603h24.45Zm11.68-16.413v87.826h31.61c20.43 0 34.92-10.476 34.92-31.079 0-19.556-12.92-29.858-34.57-29.858h-11.18V60.191h-20.78Zm74.21 0v87.826h20.78V60.191h-20.78Zm-43.83 71.413h-9.6v-28.111h10.13c8.9 0 14.14 4.016 14.14 14.143s-5.76 13.968-14.67 13.968Z" fill="#000"/><defs><linearGradient id="a" x1="80" y1="0" x2="80" y2="200" gradientUnits="userSpaceOnUse"><stop stop-color="#FF6122"/><stop offset="1" stop-color="#F22411"/></linearGradient></defs></svg>