<svg width="24" height="24" viewBox="0 0 24 24" fill="none" xmlns="http://www.w3.org/2000/svg">
<g clip-path="url(#clip0_1858_31664)">
<path d="M7.44531 8.808V12.2532L12.0113 15.1164L22.9433 7.0728C22.5576 6.22434 22.0744 5.42374 21.5033 4.68719L12.0113 11.6712L7.44531 8.808Z" fill="#00D800"/>
<path d="M12.01 24C13.7683 24.0004 15.5052 23.6143 17.0978 22.8692C18.6904 22.124 20.0998 21.038 21.2263 19.688C22.3528 18.3379 23.1688 16.7568 23.6166 15.0565C24.0645 13.3562 24.1332 11.5782 23.818 9.84839L21.2332 11.7516V12C21.2365 14.0633 20.5488 16.0683 19.2796 17.6951C18.0104 19.322 16.2329 20.4768 14.2307 20.9755C12.2286 21.4741 10.1171 21.2878 8.23314 20.4463C6.34921 19.6048 4.8014 18.1565 3.83667 16.3326C2.87193 14.5087 2.54587 12.4142 2.91049 10.3834C3.27511 8.35253 4.3094 6.5023 5.84836 5.1279C7.38732 3.75351 9.34225 2.93415 11.4013 2.80054C13.4603 2.66694 15.5047 3.2268 17.2084 4.39079L19.5496 2.67239C18.0565 1.46394 16.2952 0.631568 14.4136 0.24523C12.532 -0.141109 10.5852 -0.0701226 8.73675 0.452223C6.88831 0.974568 5.19227 1.93301 3.79118 3.24698C2.3901 4.56096 1.32491 6.19207 0.685153 8.00323C0.0453942 9.81438 -0.15024 11.7527 0.114693 13.6551C0.379625 15.5576 1.09738 17.3687 2.20764 18.9361C3.31789 20.5036 4.7882 21.7816 6.49498 22.6628C8.20176 23.544 10.0951 24.0025 12.016 24H12.01Z" fill="#00D800"/>
</g>
<defs>
<clipPath id="clip0_1858_31664">
<rect width="24" height="24" fill="white"/>
</clipPath>
</defs>
</svg>
