<svg width="20" height="20" viewBox="0 0 20 20" fill="none" xmlns="http://www.w3.org/2000/svg">
<path d="M16.6654 8.33335C16.6654 13.3334 9.9987 18.3334 9.9987 18.3334C9.9987 18.3334 3.33203 13.3334 3.33203 8.33335C3.33203 6.56524 4.03441 4.86955 5.28465 3.61931C6.5349 2.36907 8.23059 1.66669 9.9987 1.66669C11.7668 1.66669 13.4625 2.36907 14.7127 3.61931C15.963 4.86955 16.6654 6.56524 16.6654 8.33335Z" stroke="#636B71" stroke-width="1.5" stroke-linecap="round" stroke-linejoin="round"/>
<path d="M10 10.8333C11.3807 10.8333 12.5 9.71402 12.5 8.33331C12.5 6.9526 11.3807 5.83331 10 5.83331C8.61929 5.83331 7.5 6.9526 7.5 8.33331C7.5 9.71402 8.61929 10.8333 10 10.8333Z" stroke="#636B71" stroke-width="1.5" stroke-linecap="round" stroke-linejoin="round"/>
</svg>
