<svg width="32" height="32" viewBox="0 0 32 32" fill="none" xmlns="http://www.w3.org/2000/svg">
<path d="M29 12C29.0005 11.907 28.9879 11.8144 28.9625 11.725L27.1688 5.45C27.0482 5.03364 26.7962 4.66745 26.4504 4.40612C26.1045 4.14478 25.6835 4.00232 25.25 4H6.75C6.31655 4.00232 5.89547 4.14478 5.54965 4.40612C5.20382 4.66745 4.95182 5.03364 4.83125 5.45L3.03875 11.725C3.01293 11.8144 2.99988 11.907 3 12V14C3 14.7762 3.18073 15.5418 3.52786 16.2361C3.875 16.9303 4.37902 17.5343 5 18V26C5 26.5304 5.21071 27.0391 5.58579 27.4142C5.96086 27.7893 6.46957 28 7 28H25C25.5304 28 26.0391 27.7893 26.4142 27.4142C26.7893 27.0391 27 26.5304 27 26V18C27.621 17.5343 28.125 16.9303 28.4721 16.2361C28.8193 15.5418 29 14.7762 29 14V12ZM6.75 6H25.25L26.6775 11H5.32625L6.75 6ZM13 13H19V14C19 14.7956 18.6839 15.5587 18.1213 16.1213C17.5587 16.6839 16.7957 17 16 17C15.2044 17 14.4413 16.6839 13.8787 16.1213C13.3161 15.5587 13 14.7956 13 14V13ZM11 13V14C11 14.7956 10.6839 15.5587 10.1213 16.1213C9.55871 16.6839 8.79565 17 8 17C7.20435 17 6.44129 16.6839 5.87868 16.1213C5.31607 15.5587 5 14.7956 5 14V13H11ZM25 26H7V18.9C7.3292 18.9664 7.66418 18.9999 8 19C8.77623 19 9.54179 18.8193 10.2361 18.4721C10.9303 18.125 11.5343 17.621 12 17C12.4657 17.621 13.0697 18.125 13.7639 18.4721C14.4582 18.8193 15.2238 19 16 19C16.7762 19 17.5418 18.8193 18.2361 18.4721C18.9303 18.125 19.5343 17.621 20 17C20.4657 17.621 21.0697 18.125 21.7639 18.4721C22.4582 18.8193 23.2238 19 24 19C24.3358 18.9999 24.6708 18.9664 25 18.9V26ZM24 17C23.2044 17 22.4413 16.6839 21.8787 16.1213C21.3161 15.5587 21 14.7956 21 14V13H27V14C27 14.7956 26.6839 15.5587 26.1213 16.1213C25.5587 16.6839 24.7956 17 24 17Z" fill="#333333"/>
</svg>
