<svg width="279" height="258" viewBox="0 0 279 258" fill="none" xmlns="http://www.w3.org/2000/svg">
<path opacity="0.1" d="M414.256 197.482C414.256 83.1146 321.543 -9.59888 207.175 -9.59888C92.8072 -9.59888 0.09375 83.1146 0.09375 197.482C0.09375 311.85 92.8072 404.564 207.175 404.564C321.543 404.564 414.256 311.85 414.256 197.482Z" fill="white"/>
<path d="M294.709 197.482C294.709 149.138 255.518 109.947 207.174 109.947C158.829 109.947 119.639 149.138 119.639 197.482C119.639 245.827 158.829 285.017 207.174 285.017C255.518 285.017 294.709 245.827 294.709 197.482Z" fill="white"/>
<path opacity="0.3" d="M377.525 197.483C377.525 103.401 301.257 27.1333 207.176 27.1333C113.094 27.1333 36.8262 103.401 36.8262 197.483C36.8262 291.564 113.094 367.832 207.176 367.832C301.257 367.832 377.525 291.564 377.525 197.483Z" fill="white"/>
<path opacity="0.3" d="M337.874 197.483C337.874 125.301 279.359 66.7851 207.176 66.7851C134.994 66.7851 76.4785 125.301 76.4785 197.483C76.4785 269.665 134.994 328.181 207.176 328.181C279.359 328.181 337.874 269.665 337.874 197.483Z" fill="white"/>
<path d="M163.975 195.755C163.975 176.199 163.975 166.435 170.023 160.329C176.158 154.281 185.921 154.281 205.449 154.281H208.905C228.462 154.281 238.225 154.281 244.331 160.329C250.38 166.464 250.38 176.228 250.38 195.755V199.211C250.38 218.768 250.38 228.532 244.331 234.637C238.196 240.686 228.433 240.686 208.905 240.686H205.449C185.893 240.686 176.129 240.686 170.023 234.637C163.975 228.503 163.975 218.739 163.975 199.211V195.755Z" fill="white"/>
<path d="M219.623 218.373C196.453 228.489 176.32 218.404 164.241 192.219L175.894 187.131C184.727 206.344 196.843 210.815 204.357 209.55L191.578 180.283L202.52 175.505L209.811 192.206C216.174 188.581 219.892 177.882 218.595 168.446L229.503 163.684C230.512 168.421 230.534 173.315 229.566 178.061C228.599 182.807 226.663 187.302 223.88 191.266C229.03 191.524 234.067 192.872 238.658 195.219C243.25 197.566 247.291 200.86 250.517 204.884L238.491 210.134C232.411 203.23 223.254 199.807 214.381 202.673L220.978 217.781L219.657 218.358L219.623 218.373Z" fill="#0077FF"/>
</svg>
