<svg width="300" height="228" viewBox="0 0 300 228" fill="none" xmlns="http://www.w3.org/2000/svg">
<g clip-path="url(#clip0_1916_23431)">
<circle opacity="0.3" cx="243.5" cy="243.5" r="243.5" fill="white"/>
<circle opacity="0.3" cx="243.5" cy="243.5" r="192.5" fill="white"/>
<circle opacity="0.3" cx="243.5" cy="243.5" r="133.5" fill="white"/>
<g filter="url(#filter0_d_1916_23431)">
<rect x="194.553" y="126.163" width="82.6777" height="47.8389" rx="23.9194" transform="rotate(17.201 194.553 126.163)" fill="#141BFF" shape-rendering="crispEdges"/>
<path d="M203.225 155.994L203.619 154.723L209.671 156.596L209.278 157.867L203.225 155.994ZM212.831 165.555C212.111 165.332 211.488 165 210.962 164.557C210.436 164.114 210.027 163.589 209.736 162.983C209.447 162.371 209.303 161.703 209.306 160.982L210.849 160.996C210.868 161.79 211.096 162.458 211.533 162.998C211.977 163.541 212.551 163.914 213.254 164.117C213.904 164.303 214.503 164.33 215.053 164.198C215.609 164.068 216.087 163.796 216.488 163.382C216.889 162.968 217.189 162.439 217.389 161.793C217.695 160.805 217.651 159.922 217.258 159.144C216.874 158.362 216.211 157.825 215.27 157.534C215.008 157.453 214.72 157.404 214.408 157.389C214.098 157.366 213.799 157.381 213.511 157.431L213.13 156.02L220.393 152.554L220.448 153.234L213.044 150.942L213.484 149.52L221.876 152.118L221.43 153.56L215.052 156.737L215.213 156.146C216.261 156.33 217.114 156.719 217.77 157.313C218.426 157.907 218.856 158.637 219.06 159.503C219.272 160.364 219.226 161.286 218.922 162.268C218.635 163.196 218.179 163.954 217.555 164.542C216.94 165.125 216.22 165.51 215.396 165.697C214.573 165.877 213.718 165.83 212.831 165.555ZM224.513 169.183C223.619 168.906 222.876 168.448 222.286 167.808C221.702 167.17 221.312 166.431 221.116 165.589C220.922 164.74 220.963 163.869 221.24 162.974L222.989 157.326C223.265 156.431 223.723 155.692 224.36 155.108C225 154.518 225.741 154.125 226.583 153.928C227.431 153.734 228.303 153.775 229.197 154.052C230.091 154.329 230.83 154.786 231.414 155.424C232.005 156.064 232.397 156.808 232.591 157.656C232.787 158.498 232.747 159.366 232.47 160.261L230.722 165.91C230.445 166.804 229.986 167.546 229.347 168.137C228.709 168.721 227.966 169.11 227.118 169.304C226.276 169.5 225.408 169.46 224.513 169.183ZM224.957 167.75C225.555 167.936 226.144 167.96 226.725 167.823C227.307 167.679 227.819 167.406 228.26 167.005C228.701 166.603 229.014 166.107 229.197 165.515L230.989 159.725C231.174 159.126 231.199 158.537 231.061 157.957C230.924 157.376 230.655 156.865 230.253 156.424C229.854 155.976 229.355 155.66 228.757 155.475C228.158 155.289 227.568 155.269 226.985 155.413C226.405 155.55 225.894 155.819 225.453 156.22C225.012 156.622 224.699 157.122 224.513 157.72L222.721 163.51C222.538 164.102 222.515 164.688 222.652 165.268C222.789 165.849 223.057 166.363 223.457 166.811C223.858 167.252 224.358 167.565 224.957 167.75ZM233.289 171.568L232.592 170.247L250.323 160.924L251.023 162.235L233.289 171.568ZM243.716 175.127C243.05 174.921 242.491 174.571 242.04 174.078C241.597 173.58 241.295 173.007 241.134 172.361C240.976 171.707 241 171.044 241.209 170.372C241.413 169.713 241.768 169.16 242.275 168.712C242.782 168.265 243.362 167.962 244.016 167.803C244.669 167.644 245.318 167.665 245.964 167.865C246.63 168.071 247.187 168.424 247.637 168.924C248.088 169.418 248.39 169.99 248.542 170.641C248.703 171.288 248.679 171.948 248.471 172.62C248.263 173.293 247.909 173.854 247.409 174.303C246.917 174.748 246.345 175.05 245.691 175.208C245.04 175.36 244.381 175.333 243.716 175.127ZM244.131 173.786C244.541 173.913 244.953 173.926 245.368 173.826C245.782 173.726 246.146 173.536 246.461 173.258C246.778 172.973 247.001 172.622 247.13 172.205C247.259 171.788 247.272 171.376 247.17 170.968C247.07 170.554 246.877 170.189 246.592 169.872C246.307 169.555 245.959 169.333 245.549 169.206C245.132 169.077 244.716 169.063 244.302 169.163C243.894 169.265 243.529 169.458 243.206 169.741C242.891 170.019 242.669 170.367 242.54 170.784C242.411 171.201 242.397 171.617 242.497 172.031C242.606 172.44 242.799 172.802 243.078 173.117C243.363 173.434 243.714 173.657 244.131 173.786ZM237.648 164.627C236.982 164.421 236.424 164.071 235.972 163.578C235.523 163.078 235.218 162.504 235.057 161.857C234.905 161.206 234.933 160.544 235.141 159.872C235.345 159.213 235.7 158.659 236.207 158.212C236.714 157.765 237.294 157.462 237.948 157.303C238.601 157.144 239.251 157.165 239.896 157.365C240.562 157.571 241.116 157.923 241.559 158.421C242.01 158.914 242.316 159.488 242.474 160.141C242.635 160.788 242.612 161.447 242.403 162.12C242.195 162.792 241.841 163.353 241.341 163.803C240.843 164.245 240.267 164.546 239.614 164.705C238.969 164.859 238.314 164.833 237.648 164.627ZM238.063 163.286C238.48 163.415 238.892 163.428 239.3 163.326C239.714 163.225 240.079 163.036 240.393 162.758C240.71 162.473 240.933 162.122 241.062 161.705C241.191 161.288 241.204 160.876 241.102 160.468C241.002 160.054 240.809 159.688 240.524 159.372C240.246 159.057 239.898 158.835 239.481 158.706C239.064 158.577 238.649 158.563 238.234 158.663C237.827 158.765 237.465 158.959 237.148 159.244C236.833 159.522 236.612 159.87 236.482 160.287C236.353 160.704 236.339 161.119 236.439 161.534C236.541 161.941 236.732 162.302 237.01 162.617C237.295 162.934 237.646 163.156 238.063 163.286Z" fill="white"/>
</g>
<g filter="url(#filter1_d_1916_23431)">
<rect x="82.4688" y="139.21" width="64.1562" height="35.9923" rx="17.9962" transform="rotate(-19.2937 82.4688 139.21)" fill="white" shape-rendering="crispEdges"/>
<path d="M109.442 155.445C108.879 155.643 108.318 155.709 107.759 155.645C107.2 155.581 106.681 155.404 106.201 155.115C105.721 154.825 105.316 154.442 104.985 153.965L105.949 153.306C106.182 153.665 106.474 153.943 106.826 154.142C107.176 154.336 107.547 154.452 107.939 154.489C108.335 154.526 108.72 154.479 109.092 154.348C109.575 154.179 109.967 153.912 110.269 153.547C110.573 153.175 110.771 152.755 110.862 152.289C110.952 151.822 110.917 151.358 110.755 150.895C110.587 150.417 110.319 150.028 109.948 149.729C109.576 149.424 109.157 149.226 108.69 149.136C108.224 149.045 107.762 149.079 107.304 149.24C106.791 149.419 106.388 149.688 106.095 150.044C105.8 150.396 105.601 150.779 105.497 151.194L104.338 151.125L102.692 145.357L108.495 143.325L108.867 144.389L103.555 146.249L103.923 145.536L105.317 150.46L104.908 150.188C105.095 149.722 105.375 149.311 105.747 148.955C106.119 148.598 106.549 148.335 107.037 148.164C107.706 147.93 108.366 147.88 109.017 148.013C109.667 148.142 110.245 148.422 110.752 148.854C111.259 149.287 111.63 149.837 111.864 150.506C112.096 151.17 112.141 151.838 111.998 152.51C111.853 153.176 111.559 153.773 111.117 154.3C110.675 154.828 110.116 155.209 109.442 155.445ZM118.266 152.357C117.597 152.591 116.938 152.646 116.291 152.523C115.649 152.398 115.078 152.123 114.579 151.699C114.079 151.27 113.712 150.721 113.478 150.052L111.998 145.826C111.764 145.157 111.71 144.501 111.835 143.859C111.958 143.211 112.232 142.638 112.656 142.14C113.085 141.639 113.634 141.272 114.303 141.038C114.972 140.804 115.628 140.749 116.271 140.874C116.918 140.998 117.492 141.274 117.992 141.703C118.491 142.127 118.857 142.674 119.091 143.343L120.571 147.569C120.805 148.238 120.86 148.896 120.737 149.543C120.612 150.186 120.335 150.757 119.905 151.257C119.481 151.756 118.935 152.122 118.266 152.357ZM117.891 151.285C118.338 151.128 118.708 150.878 118.999 150.533C119.289 150.183 119.478 149.786 119.566 149.343C119.654 148.9 119.62 148.458 119.465 148.015L117.949 143.684C117.792 143.236 117.541 142.866 117.196 142.575C116.851 142.283 116.457 142.094 116.014 142.006C115.57 141.913 115.124 141.945 114.676 142.102C114.228 142.259 113.859 142.512 113.57 142.862C113.278 143.207 113.088 143.601 113.001 144.044C112.913 144.486 112.947 144.932 113.104 145.38L114.62 149.711C114.775 150.154 115.025 150.521 115.37 150.812C115.715 151.104 116.11 151.296 116.555 151.389C116.998 151.476 117.443 151.442 117.891 151.285ZM124.681 149.857L123.663 149.366L130.257 135.707L131.273 136.19L124.681 149.857ZM132.631 147.328C132.133 147.502 131.635 147.541 131.138 147.444C130.644 147.34 130.203 147.127 129.814 146.806C129.423 146.48 129.139 146.065 128.963 145.562C128.791 145.069 128.758 144.573 128.865 144.072C128.972 143.571 129.189 143.126 129.515 142.735C129.841 142.344 130.246 142.064 130.729 141.895C131.227 141.72 131.725 141.684 132.224 141.786C132.721 141.884 133.163 142.096 133.549 142.424C133.938 142.745 134.22 143.157 134.396 143.66C134.573 144.163 134.61 144.664 134.507 145.163C134.409 145.655 134.196 146.097 133.87 146.488C133.542 146.873 133.129 147.154 132.631 147.328ZM132.28 146.324C132.586 146.217 132.843 146.039 133.05 145.792C133.257 145.544 133.394 145.265 133.46 144.954C133.524 144.638 133.502 144.324 133.393 144.012C133.284 143.7 133.106 143.443 132.86 143.241C132.613 143.034 132.331 142.898 132.015 142.834C131.699 142.769 131.387 142.791 131.08 142.898C130.768 143.008 130.509 143.186 130.302 143.433C130.1 143.679 129.964 143.961 129.895 144.279C129.829 144.59 129.85 144.902 129.959 145.214C130.069 145.526 130.247 145.785 130.494 145.992C130.745 146.192 131.026 146.325 131.337 146.391C131.654 146.456 131.968 146.433 132.28 146.324ZM124.209 143.669C123.711 143.843 123.214 143.882 122.717 143.785C122.218 143.683 121.774 143.471 121.385 143.15C120.999 142.822 120.718 142.406 120.542 141.903C120.369 141.41 120.336 140.914 120.444 140.413C120.551 139.913 120.767 139.467 121.094 139.076C121.42 138.685 121.824 138.405 122.307 138.236C122.805 138.062 123.301 138.026 123.795 138.13C124.292 138.227 124.736 138.439 125.127 138.765C125.516 139.086 125.799 139.498 125.975 140.001C126.151 140.505 126.188 141.005 126.086 141.504C125.982 141.998 125.767 142.44 125.441 142.831C125.118 143.215 124.707 143.495 124.209 143.669ZM123.858 142.665C124.17 142.556 124.427 142.379 124.629 142.133C124.836 141.885 124.972 141.606 125.038 141.295C125.103 140.979 125.08 140.665 124.971 140.353C124.862 140.041 124.685 139.784 124.439 139.582C124.191 139.375 123.909 139.239 123.593 139.175C123.282 139.109 122.971 139.13 122.659 139.24C122.347 139.349 122.087 139.527 121.88 139.775C121.678 140.02 121.545 140.301 121.481 140.617C121.415 140.929 121.436 141.24 121.545 141.552C121.655 141.864 121.833 142.123 122.08 142.33C122.326 142.532 122.605 142.666 122.916 142.733C123.232 142.797 123.546 142.775 123.858 142.665Z" fill="black"/>
</g>
<g filter="url(#filter2_d_1916_23431)">
<rect x="154.287" y="22" width="97.8497" height="62.9249" rx="31.4624" transform="rotate(15 154.287 22)" fill="#FE412D" shape-rendering="crispEdges"/>
<path d="M166.433 69.2148L178.257 53.6519L169.27 51.2437L169.786 49.3168L180.889 52.2919L180.373 54.2187L168.562 69.7853L166.433 69.2148ZM184.743 74.5543C183.548 74.2342 182.545 73.6668 181.733 72.8523C180.93 72.0403 180.378 71.0835 180.076 69.9821C179.776 68.8716 179.787 67.719 180.107 66.5243L182.129 58.9785C182.449 57.7838 183.015 56.7849 183.827 55.982C184.642 55.17 185.6 54.6131 186.701 54.3113C187.811 54.0119 188.964 54.0223 190.159 54.3424C191.353 54.6625 192.352 55.2287 193.155 56.0408C193.967 56.8552 194.523 57.8177 194.822 58.9281C195.124 60.0296 195.115 61.1777 194.795 62.3724L192.773 69.9182C192.453 71.1129 191.886 72.1163 191.071 72.9282C190.259 73.7312 189.298 74.2824 188.187 74.5818C187.086 74.8836 185.938 74.8744 184.743 74.5543ZM185.256 72.6409C186.055 72.8551 186.835 72.857 187.594 72.6464C188.355 72.4269 189.017 72.0409 189.579 71.4887C190.141 70.9364 190.528 70.265 190.74 69.4745L192.812 61.7401C193.027 60.9406 193.028 60.1613 192.818 59.402C192.607 58.6427 192.226 57.9821 191.674 57.4201C191.124 56.8492 190.449 56.4566 189.65 56.2423C188.85 56.0281 188.07 56.0308 187.308 56.2503C186.549 56.4609 185.888 56.8423 185.326 57.3945C184.764 57.9468 184.376 58.6227 184.162 59.4222L182.089 67.1566C181.877 67.9471 181.877 68.722 182.087 69.4812C182.298 70.2405 182.678 70.9056 183.228 71.4766C183.78 72.0386 184.456 72.4267 185.256 72.6409ZM196.449 77.2576L195.462 75.5491L218.397 62.3421L219.387 64.0371L196.449 77.2576ZM210.395 81.4276C209.505 81.1893 208.75 80.7559 208.129 80.1273C207.519 79.4922 207.092 78.7518 206.847 77.9063C206.604 77.0517 206.603 76.1753 206.844 75.277C207.079 74.3966 207.521 73.6483 208.167 73.0321C208.814 72.4158 209.564 71.9863 210.419 71.7435C211.273 71.5007 212.132 71.4948 212.994 71.7259C213.883 71.9642 214.637 72.4021 215.256 73.0397C215.877 73.6682 216.305 74.4086 216.538 75.2607C216.784 76.1063 216.786 76.9782 216.545 77.8765C216.305 78.7749 215.865 79.5333 215.228 80.152C214.602 80.7641 213.861 81.1915 213.007 81.4343C212.155 81.6682 211.284 81.6659 210.395 81.4276ZM210.875 79.6355C211.423 79.7823 211.968 79.7791 212.509 79.6258C213.051 79.4725 213.523 79.204 213.924 78.8205C214.327 78.428 214.604 77.9533 214.753 77.3964C214.902 76.8394 214.899 76.2946 214.743 75.7618C214.59 75.2201 214.317 74.7474 213.925 74.3437C213.532 73.9401 213.062 73.6649 212.514 73.518C211.957 73.3688 211.408 73.3708 210.866 73.5242C210.333 73.6799 209.86 73.9528 209.448 74.3429C209.047 74.7264 208.771 75.1966 208.622 75.7536C208.473 76.3105 208.475 76.8599 208.628 77.4016C208.793 77.9368 209.067 78.405 209.451 78.8062C209.843 79.2098 210.318 79.4863 210.875 79.6355ZM201.852 67.8738C200.962 67.6355 200.207 67.2021 199.586 66.5735C198.967 65.936 198.535 65.1944 198.29 64.3488C198.056 63.4967 198.06 62.6215 198.301 61.7232C198.537 60.8428 198.978 60.0945 199.624 59.4783C200.271 58.862 201.021 58.4325 201.876 58.1897C202.73 57.9469 203.589 57.941 204.451 58.1721C205.341 58.4104 206.09 58.8471 206.7 59.4822C207.321 60.1108 207.753 60.8524 207.996 61.7069C208.241 62.5525 208.243 63.4244 208.002 64.3227C207.762 65.221 207.322 65.9795 206.685 66.5982C206.05 67.2079 205.305 67.6341 204.45 67.8769C203.607 68.1131 202.741 68.1121 201.852 67.8738ZM202.332 66.0817C202.889 66.2309 203.434 66.2277 203.966 66.0719C204.508 65.9186 204.98 65.6502 205.381 65.2667C205.785 64.8742 206.061 64.3995 206.21 63.8425C206.359 63.2856 206.356 62.7407 206.2 62.208C206.047 61.6662 205.774 61.1935 205.382 60.7899C204.998 60.3887 204.528 60.1134 203.971 59.9642C203.414 59.815 202.865 59.817 202.323 59.9703C201.79 60.126 201.322 60.4002 200.918 60.7927C200.517 61.1762 200.242 61.6464 200.093 62.2034C199.944 62.7603 199.946 63.3096 200.099 63.8514C200.255 64.3841 200.524 64.8511 200.908 65.2524C201.3 65.656 201.775 65.9324 202.332 66.0817Z" fill="white"/>
</g>
</g>
<defs>
<filter id="filter0_d_1916_23431" x="152.406" y="102.163" width="149.127" height="126.149" filterUnits="userSpaceOnUse" color-interpolation-filters="sRGB">
<feFlood flood-opacity="0" result="BackgroundImageFix"/>
<feColorMatrix in="SourceAlpha" type="matrix" values="0 0 0 0 0 0 0 0 0 0 0 0 0 0 0 0 0 0 127 0" result="hardAlpha"/>
<feOffset dy="4"/>
<feGaussianBlur stdDeviation="14"/>
<feComposite in2="hardAlpha" operator="out"/>
<feColorMatrix type="matrix" values="0 0 0 0 0.0784314 0 0 0 0 0.105882 0 0 0 0 1 0 0 0 0.3 0"/>
<feBlend mode="normal" in2="BackgroundImageFix" result="effect1_dropShadow_1916_23431"/>
<feBlend mode="normal" in="SourceGraphic" in2="effect1_dropShadow_1916_23431" result="shape"/>
</filter>
<filter id="filter1_d_1916_23431" x="54.4688" y="94.0125" width="128.445" height="111.169" filterUnits="userSpaceOnUse" color-interpolation-filters="sRGB">
<feFlood flood-opacity="0" result="BackgroundImageFix"/>
<feColorMatrix in="SourceAlpha" type="matrix" values="0 0 0 0 0 0 0 0 0 0 0 0 0 0 0 0 0 0 127 0" result="hardAlpha"/>
<feOffset dy="4"/>
<feGaussianBlur stdDeviation="14"/>
<feComposite in2="hardAlpha" operator="out"/>
<feColorMatrix type="matrix" values="0 0 0 0 1 0 0 0 0 1 0 0 0 0 1 0 0 0 0.3 0"/>
<feBlend mode="normal" in2="BackgroundImageFix" result="effect1_dropShadow_1916_23431"/>
<feBlend mode="normal" in="SourceGraphic" in2="effect1_dropShadow_1916_23431" result="shape"/>
</filter>
<filter id="filter2_d_1916_23431" x="110" y="-2" width="166.803" height="142.106" filterUnits="userSpaceOnUse" color-interpolation-filters="sRGB">
<feFlood flood-opacity="0" result="BackgroundImageFix"/>
<feColorMatrix in="SourceAlpha" type="matrix" values="0 0 0 0 0 0 0 0 0 0 0 0 0 0 0 0 0 0 127 0" result="hardAlpha"/>
<feOffset dy="4"/>
<feGaussianBlur stdDeviation="14"/>
<feComposite in2="hardAlpha" operator="out"/>
<feColorMatrix type="matrix" values="0 0 0 0 0.996078 0 0 0 0 0.254902 0 0 0 0 0.176471 0 0 0 0.3 0"/>
<feBlend mode="normal" in2="BackgroundImageFix" result="effect1_dropShadow_1916_23431"/>
<feBlend mode="normal" in="SourceGraphic" in2="effect1_dropShadow_1916_23431" result="shape"/>
</filter>
<clipPath id="clip0_1916_23431">
<rect width="300" height="228" fill="white"/>
</clipPath>
</defs>
</svg>
